# xmcd CD database file
#
# Track frame offsets:
#	150
#	27722
#	53317
#	66412
#	79110
#	85957
#	102452
#	117142
#	137222
#	155380
#	167880
#	188122
#	244470
#
# Disc length: 3263 seconds
#
# Revision: 13
# Processed by: cddbd v1.5.2PL0 Copyright (c) Steve Scherf et al.
# Submitted via: CDex 1.70beta2
#
DISCID=b30cbd0d
DTITLE=Kula Shaker - Peasants, Pigs and Astronauts
DYEAR=1999
DGENRE=Britpop
TTITLE0=kula shaker - great hosannah
TTITLE1=kula shaker - mystical machine gun
TTITLE2=kula shaker - s.o.s.
TTITLE3=kula shaker - radhe radhe
TTITLE4=kula shaker - i'm still here
TTITLE5=kula shaker - shower your love
TTITLE6=kula shaker - 108 battles (of the mind)
TTITLE7=kula shaker - sound of drums
TTITLE8=kula shaker - timeworm
TTITLE9=kula shaker - last farewell
TTITLE10=kula shaker - golden avatar
TTITLE11=kula shaker - namami nanda-nandana
TTITLE12=kula shaker - (untitled_(hidden track)
EXTD=YEAR: 1999
EXTT0=
EXTT1=
EXTT2=
EXTT3=
EXTT4=
EXTT5=
EXTT6=
EXTT7=
EXTT8=
EXTT9=
EXTT10=
EXTT11=
EXTT12=
PLAYORDER=
